<svg xmlns="http://www.w3.org/2000/svg" width="64" height="64" viewBox="0 0 64 64">
  <rect width="64" height="64" rx="14" fill="#0f1a30"/>
  <path d="M18 18h20l8 8v20a6 6 0 0 1-6 6H18a6 6 0 0 1-6-6V24a6 6 0 0 1 6-6z" fill="#66d9ff" opacity="0.18"/>
  <path d="M18 18h20l8 8v20a6 6 0 0 1-6 6H18a6 6 0 0 1-6-6V24a6 6 0 0 1 6-6z" fill="none" stroke="#66d9ff" stroke-width="2"/>
  <path d="M38 18v10h10" fill="none" stroke="#66d9ff" stroke-width="2"/>
  <path d="M20 34h24M20 40h18" stroke="#e8eefc" stroke-width="2" stroke-linecap="round" opacity="0.9"/>
</svg>
